# xmcd CD database file
#
# Track frame offsets:
#	150
#	13210
#	25857
#	37045
#	48800
#	62227
#	75970
#	88915
#	101457
#	112317
#	126705
#	137892
#	149947
#	164382
#	178760
#	191402
#	203082
#	217085
#	230422
#
# Disc length: 3254 seconds
#
# Revision: 0
# Processed by: cddbd v1.5.2PL0 Copyright (c) Steve Scherf et al.
# Submitted via: CDex 1.51
#
DISCID=230cb413
DTITLE=Sarah Vaughan - The Complete Sarah Vaughan On Musicraft [CD2]
DYEAR=1900
DGENRE=Jazz
TTITLE0=The Lord's Prayer
TTITLE1=Sometimes I Feel Like A Motherless Child
TTITLE2=I Can't Get Started
TTITLE3=Trouble Is A Man
TTITLE4=Love Me Or Leave Me
TTITLE5=I'll Wait And Pray
TTITLE6=I Get A Kick Out Of You
TTITLE7=The Man I Love
TTITLE8=I'm Gonna Sit Right Down And Write Myself A Letter
TTITLE9=The One I Love Belongs To Somebody Else
TTITLE10=Button Up Your Overcoat
TTITLE11=I Feel So Smoochie
TTITLE12=It's You Or No One
TTITLE13=It's A Magic
TTITLE14=What A Difference A Day Made
TTITLE15=Gentleman Friend
TTITLE16=Once In A While
TTITLE17=Nature Boy
TTITLE18=I'm Glad There Is You
EXTD=
EXTT0=
EXTT1=
EXTT2=
EXTT3=
EXTT4=
EXTT5=
EXTT6=
EXTT7=
EXTT8=
EXTT9=
EXTT10=
EXTT11=
EXTT12=
EXTT13=
EXTT14=
EXTT15=
EXTT16=
EXTT17=
EXTT18=
PLAYORDER=
